Coordinates
version=1
nRows=14
nColumns=24
inDegrees=yes

Units are S.I. units (second, meters, Newtons, ...)
If the header above contains a line with 'inDegrees', this indicates whether rotational values are in degrees (yes) or radians (no).

endheader
time	pelvis_tilt	pelvis_list	pelvis_rotation	pelvis_tx	pelvis_ty	pelvis_tz	hip_flexion_r	hip_adduction_r	hip_rotation_r	knee_angle_r	ankle_angle_r	subtalar_angle_r	mtp_angle_r	hip_flexion_l	hip_adduction_l	hip_rotation_l	knee_angle_l	ankle_angle_l	subtalar_angle_l	mtp_angle_l	lumbar_extension	lumbar_bending	lumbar_rotation
      0.69000000	     -0.81810351	     -1.62851864	     -6.43922320	     -0.65324593	      0.76296245	      0.09389320	    -10.70840596	      1.43325011	     -0.95175444	    -28.02066607	      9.09755591	      1.84464497	      0.00000000	     29.12260288	     -0.07534030	     -5.04274621	    -17.40802518	     -7.69370900	    -10.58395102	      0.00000000	     -7.13507531	      2.32338267	      9.14772504
      0.69500000	     -0.79639801	     -1.34523239	     -6.39902050	     -0.64712755	      0.76294775	      0.09329747	    -10.42102169	      0.96534320	     -1.29208631	    -29.13105507	      7.90983635	      1.80674009	      0.00000000	     29.16946470	      0.28994494	     -4.96247525	    -18.14329888	     -8.16986702	    -11.00542418	      0.00000000	     -7.03499550	      1.98517743	      9.17349879
      0.70000000	     -0.79186313	     -1.03953208	     -6.33351532	     -0.64102667	      0.76298071	      0.09276374	    -10.07771367	      0.50177484	     -1.61448120	    -30.27526922	      6.68551043	      1.75456865	      0.00000000	     29.20026490	      0.69195213	     -4.78392089	    -18.83262988	     -8.51074020	    -11.39043185	      0.00000000	     -6.91414294	      1.58042801	      9.18623793
      0.70500000	     -0.77026256	     -0.71960389	     -6.28430745	     -0.63496804	      0.76306783	      0.09207454	     -9.69094567	     -0.01426599	     -1.93551675	    -31.48083532	      5.28820314	      1.68070340	      0.00000000	     29.21568719	      1.12142071	     -4.61751807	    -19.55408218	     -8.62590845	    -11.67328717	      0.00000000	     -6.82772808	      1.21563267	      9.18808034
      0.71000000	     -0.77733187	     -0.37222050	     -6.21685730	     -0.62892233	      0.76316037	      0.09137470	     -9.22999604	     -0.55310113	     -2.25271341	    -32.71901549	      3.79255863	      1.54757517	      0.00000000	     29.24098157	      1.58895257	     -4.44034077	    -20.24844676	     -8.61538727	    -11.94424459	      0.00000000	     -6.69657273	      0.80393965	      9.18314361
      0.71500000	     -0.73721706	     -0.07836500	     -6.16037276	     -0.62297471	      0.76335053	      0.09073457	     -8.75532253	     -1.02722300	     -2.49527245	    -34.04079911	      2.29278563	      1.40406120	      0.00000000	     29.19262863	      1.99096532	     -4.31531573	    -20.90892847	     -8.45793166	    -12.15512805	      0.00000000	     -6.66217365	      0.45245143	      9.15640935
      0.72000000	     -0.73525200	      0.26405144	     -6.11204321	     -0.61704297	      0.76352809	      0.08999977	     -8.19639024	     -1.58024017	     -2.75713946	    -35.37208007	      0.59723868	      1.17931961	      0.00000000	     29.17631323	      2.44619121	     -4.21975181	    -21.56727884	     -8.18856041	    -12.35177996	      0.00000000	     -6.55204510	      0.05572125	      9.13029195
      0.72500000	     -0.83486515	      0.62425641	     -6.05753310	     -0.61121383	      0.76365714	      0.08933047	     -7.48181864	     -2.07498902	     -2.87641799	    -36.71123426	     -1.34005661	      0.41639912	      0.00000000	     29.25871751	      2.91153360	     -4.11723407	    -22.20600024	     -7.94389831	    -12.56868690	      0.00000000	     -6.33726501	     -0.35591450	      9.15593232
      0.73000000	     -0.80251588	      0.96229465	     -6.00189514	     -0.60535068	      0.76397007	      0.08860902	     -6.87510024	     -2.60153338	     -3.01568990	    -38.08151817	     -3.15770913	      0.21135827	      0.00000000	     29.16031143	      3.36041196	     -4.09592380	    -22.81285345	     -7.44526302	    -12.65282632	      0.00000000	     -6.27868013	     -0.73714650	      9.09837612
      0.73500000	     -0.82202147	      1.30279094	     -5.96383098	     -0.59962090	      0.76424885	      0.08792965	     -6.14379691	     -3.11385488	     -3.11330740	    -39.51247842	     -5.05258501	     -0.25130969	      0.00000000	     29.07572829	      3.79165589	     -4.10612182	    -23.33381066	     -6.91151416	    -12.66280559	      0.00000000	     -6.18339190	     -1.13177244	      9.06047962
      0.74000000	     -0.86941076	      1.60414143	     -5.94827375	     -0.59400240	      0.76455112	      0.08739070	     -5.34014600	     -3.52973449	     -3.07407409	    -40.95122869	     -7.00564763	     -1.04323115	      0.00000000	     29.00730945	      4.14336071	     -4.17110112	    -23.84796846	     -6.35366922	    -12.55003839	      0.00000000	     -6.07547768	     -1.50112130	      9.07035072
      0.74500000	     -0.91381543	      1.87967379	     -5.89980672	     -0.58840364	      0.76493183	      0.08683246	     -4.52200889	     -3.88913030	     -2.98368582	    -42.36591866	     -8.95336101	     -1.76332137	      0.00000000	     28.89162592	      4.47790041	     -4.31083436	    -24.29558792	     -5.70535048	    -12.40281005	      0.00000000	     -5.96455362	     -1.82603189	      9.04886969
      0.75000000	     -0.95212474	      2.10995781	     -5.87656287	     -0.58292884	      0.76533544	      0.08643106	     -3.66494766	     -4.16211856	     -2.80521397	    -43.80896332	    -10.83693566	     -2.62113935	      0.00000000	     28.75833204	      4.72916107	     -4.49689815	    -24.74457836	     -5.04372827	    -12.14235248	      0.00000000	     -5.88535208	     -2.12779873	      9.04707338
      0.75500000	     -0.97386709	      2.35691013	     -5.82476456	     -0.57741801	      0.76581109	      0.08589342	     -2.80683153	     -4.47596064	     -2.64921070	    -45.25191566	    -12.57901673	     -3.05488244	      0.00000000	     28.52590370	      5.03511837	     -4.67730247	    -25.05182584	     -4.32910988	    -12.02976255	      0.00000000	     -5.81581324	     -2.43865563	      8.92405173
